Coordinates
version=1
nRows=8
nColumns=40
inDegrees=yes

Units are S.I. units (second, meters, Newtons, ...)
Angles are in degrees.

endheader
time	pelvis_tilt	pelvis_list	pelvis_rotation	pelvis_tx	pelvis_ty	pelvis_tz	hip_flexion_r	hip_adduction_r	hip_rotation_r	knee_angle_r	knee_angle_r_beta	ankle_angle_r	subtalar_angle_r	mtp_angle_r	hip_flexion_l	hip_adduction_l	hip_rotation_l	knee_angle_l	knee_angle_l_beta	ankle_angle_l	subtalar_angle_l	mtp_angle_l	lumbar_extension	lumbar_bending	lumbar_rotation	arm_flex_r	arm_add_r	arm_rot_r	elbow_flex_r	pro_sup_r	wrist_flex_r	wrist_dev_r	arm_flex_l	arm_add_l	arm_rot_l	elbow_flex_l	pro_sup_l	wrist_flex_l	wrist_dev_l
      1.67000000	     -2.68258926	     -3.79768089	      8.02529210	      0.72017516	      0.95534791	      1.41144219	     15.17874381	      3.96044269	    -18.65008083	    -19.86211994	     -0.34665939	      3.67305337	     -9.15832786	      3.03725200	     16.94689564	     10.27198685	      8.61952974	    -59.84586526	     -1.04450739	      6.18757922	     18.34671923	     10.11230128	     -0.97373848	      1.52871920	     -4.26094496	     -0.32447016	    -10.36640448	    -18.23678183	     15.61284007	     89.95437384	      0.00000000	      0.00000000	      0.95361027	      9.21135947	     -4.19562602	     10.77772725	     89.95437384	      0.00000000	      0.00000000
      1.68000000	     -2.67274175	     -3.24747142	      7.93202660	      0.72873977	      0.95701531	      1.41184687	     14.20569414	      3.50565156	    -18.87218428	    -19.30041635	     -0.33685581	      4.00165252	     -8.43285407	      2.72435146	     18.13764404	      9.48606014	      8.85986504	    -59.23381845	     -1.03382516	      6.57223493	     18.27513292	     10.45846168	     -1.22625001	      0.83753633	     -3.54198335	      0.37227407	    -10.42105403	    -17.84560432	     16.28754097	     89.95437384	      0.00000000	      0.00000000	      0.10168160	      9.38771389	     -5.26493025	     10.87243695	     89.95437384	      0.00000000	      0.00000000
      1.69000000	     -2.75154766	     -3.00377089	      7.75387483	      0.73738545	      0.95822742	      1.41250248	     13.52707607	      3.36438921	    -19.21927484	    -19.02772873	     -0.33209652	      4.26812262	     -8.29695217	      2.60777942	     19.47395423	      9.16697962	      9.29307784	    -58.60810815	     -1.02290446	      6.79252811	     18.15462647	     10.38914275	     -1.29939759	      0.46613308	     -2.78248357	      1.12559290	    -10.52511097	    -17.62944328	     16.83344385	     89.95437384	      0.00000000	      0.00000000	     -0.68290554	      9.42402745	     -5.46386314	     10.82731943	     89.95437384	      0.00000000	      0.00000000
      1.70000000	     -2.83874220	     -2.42413427	      7.38189334	      0.74613788	      0.95954425	      1.41308593	     12.66118671	      2.94486663	    -18.96074312	    -18.42831586	     -0.32163479	      4.48479984	     -7.67925903	      2.37700127	     20.49112679	      8.39002656	      9.87653777	    -57.40089444	     -1.00183460	      7.20999194	     17.91657514	     10.39272219	     -1.36737126	     -0.26601239	     -1.82639039	      1.78064991	    -10.65815091	    -17.08623572	     17.52984174	     89.95437384	      0.00000000	      0.00000000	     -1.58527901	      9.62221198	     -6.05165052	     11.06886782	     89.95437384	      0.00000000	      0.00000000
      1.71000000	     -2.09389764	     -1.48092944	      6.75416783	      0.75583008	      0.96216999	      1.41370963	     10.86202647	      2.14334142	    -18.91881665	    -18.06344644	     -0.31526661	      5.02438873	     -6.23850832	      1.20572325	     20.11135345	      7.51621334	     11.13215285	    -55.54013886	     -0.96935829	      7.53715430	     17.87197569	     11.28248825	     -2.30694431	     -1.29434467	     -0.55923163	      2.33001858	    -10.90098537	    -15.84160581	     18.43358675	     89.95437384	      0.00000000	      0.00000000	     -2.52853290	     10.03053870	     -8.15750245	     11.59976349	     89.95437384	      0.00000000	      0.00000000
      1.72000000	     -1.97541982	     -0.85528576	      6.26415297	      0.76510449	      0.96352809	      1.41419956	      9.81178870	      1.51165510	    -19.28244554	    -17.63402835	     -0.30777186	      5.03162917	     -4.55184136	     -2.26019135	     20.65436787	      6.87918863	     12.18254286	    -53.82454164	     -0.93941547	      8.03301483	     17.72669805	     13.11708261	     -2.52170543	     -2.05212520	      0.47543863	      2.95082657	    -11.05298678	    -15.50476849	     19.19840067	     89.95437384	      0.00000000	      0.00000000	     -3.40669835	     10.21031067	     -8.28188342	     11.79387056	     89.95437384	      0.00000000	      0.00000000
      1.73000000	     -2.01472490	     -0.38418011	      5.55872200	      0.77425865	      0.96441261	      1.41512013	      8.96416953	      1.26331369	    -18.58911609	    -17.13768963	     -0.29910911	      5.38566447	     -4.53675269	     -2.64927497	     21.25931651	      6.50460438	     13.42623472	    -51.79921436	     -0.90406684	      8.17602685	     17.56658794	     13.14922434	     -2.50701300	     -2.65676093	      1.65884750	      3.56053794	    -11.26917349	    -14.94040049	     19.98239061	     89.95437384	      0.00000000	      0.00000000	     -4.32227610	     10.34145198	     -7.95294283	     12.01083666	     89.95437384	      0.00000000	      0.00000000
      1.74000000	     -2.29619599	     -0.45921614	      5.36754608	      0.78296672	      0.96450293	      1.41551839	      8.50800774	      1.43081520	    -18.94752670	    -16.80616784	     -0.29332296	      5.67022832	     -4.55210337	     -2.70665542	     22.47563304	      6.59186541	     14.12406530	    -50.02051886	     -0.87302275	      8.31706166	     17.47879858	     13.06560357	     -2.17754348	     -2.68688846	      2.39795645	      4.23600736	    -11.50511289	    -14.77407880	     20.58239554	     89.95437384	      0.00000000	      0.00000000	     -5.12996889	     10.47241919	     -7.80825980	     12.07371006	     89.95437384	      0.00000000	      0.00000000
